<svg width="234" height="290" fill="none" xmlns="http://www.w3.org/2000/svg"><path d="M62.224-62.818c-21.459 17.57-37.977 40.713-48.586 66.25C2.818 29.453-2.032 58.352.818 86.464c1.485 14.601 5.273 29.384 13.578 41.652 8.366 12.359 20.823 21.447 33.886 28.384 13.306 7.089 28.036 12.36 43.1 13.905 13.73 1.423 28.43-.606 39.826-8.876 17.64-12.814 23.914-43.773 3.91-57.465-5.547-3.787-12.154-5.665-18.762-6.483-7.153-.878-14.639-.636-21.64 1.151-13.458 3.423-23.278 13.208-29.037 25.567-12.063 25.81-8.607 57.496 2.516 82.972 11.578 26.536 32.522 47.862 57.618 62.009 24.005 13.571 51.526 20.841 79.137 20.69 26.672-.152 53.557-7.331 75.743-22.356a119.802 119.802 0 0015.155-12.208c.697-.667-.364-1.757-1.061-1.061-18.974 18.025-43.615 28.869-69.408 32.626-26.006 3.786-52.829.454-77.319-8.906-25.793-9.846-49.434-26.416-65.65-48.953-16.58-22.992-25.308-52.225-21.823-80.548 1.607-13.087 5.971-26.567 14.913-36.533 9.85-10.966 24.308-14.359 38.583-13.178 12.821 1.06 26.096 6.786 30.461 19.842 3.546 10.602.879 22.75-5.122 31.928-15.913 24.416-50.314 20.63-73.924 11.906-14.094-5.211-27.946-12.754-39.07-22.962-10.88-9.997-17.79-22.811-21.306-37.078C1.727 88.796 1.09 74.407 1.969 60.382a174.298 174.298 0 017.275-40.017c7.82-25.627 21.428-49.62 39.977-69.006a157.038 157.038 0 0114.185-13.117c.637-.606-.424-1.666-1.182-1.06z" fill="#fff"/></svg>