<svg width="20" height="14" fill="none" xmlns="http://www.w3.org/2000/svg"><g clip-path="url(#clip0)" fill="#961914"><path d="M18.295 2.846c-.917-.627-2.199-1.133-3.821-1.517-3.128-.74-6.655-.82-8.03-.82C2.891.509 0 2.999 0 6.054V8.4c0 3.056 2.892 5.545 6.443 5.545 1.635 0 2.87-.445 4.174-.91 1.352-.486 2.74-.982 4.703-.982 2.587 0 4.68-1.811 4.68-4.027V5.68c0-1.103-.576-2.055-1.705-2.834zm-.33 5.748c.154.131.4.141.553.01.27-.213.494-.456.694-.709v.132c0 1.852-1.752 3.36-3.903 3.36-2.117 0-3.586.526-4.997 1.031-1.223.446-2.387.86-3.869.86-2.998 0-5.467-2.013-5.655-4.563C1.88 10.435 4.009 11.6 6.443 11.6c1.635 0 2.87-.445 4.174-.91 1.352-.486 2.74-.982 4.703-.982.141 0 .294-.01.435-.02.212-.02.377-.183.353-.365-.023-.182-.212-.324-.423-.303-.118.01-.247.01-.365.01-2.116 0-3.586.526-4.997 1.032-1.234.455-2.398.87-3.88.87-3.127 0-5.667-2.186-5.667-4.877 0-2.692 2.54-4.877 5.667-4.877 1.34 0 4.786.08 7.82.8 3.28.778 4.95 2.023 4.95 3.703 0 .92-.448 1.81-1.235 2.438a.312.312 0 00-.012.476z"/><path d="M17.648 8.806c-.094-.172-.329-.243-.517-.162h-.012c-.188.081-.27.284-.176.456.07.121.212.182.353.182.059 0 .117-.01.176-.03.188-.082.27-.274.176-.446zM9.265 1.946h-.023c-.212-.01-.4.121-.424.313-.011.183.141.344.353.365H9.23c.2 0 .376-.132.388-.314.023-.182-.141-.344-.353-.364z"/><path d="M18.19 4.779c-.389-.668-1.247-1.235-2.564-1.7-1.058-.374-2.222-.617-3.01-.749-.47-.08-.964-.152-1.47-.212-.211-.02-.411.111-.435.293-.035.182.118.354.33.375.493.06.964.131 1.422.202 2.681.455 4.515 1.214 5.033 2.084.105.182.164.385.164.607 0 1.113-1.046 2.014-2.34 2.014-1.305 0-2.563.182-3.868.557-.564.161-1.105.354-1.634.546-.353.121-.706.253-1.07.364-.894.304-1.588.425-2.305.425-2.257 0-4.103-1.578-4.103-3.531 0-1.943 1.834-3.532 4.103-3.532.447 0 .894.01 1.329.02.07 0 .153 0 .223.01.224.01.4-.13.412-.323.012-.182-.153-.344-.376-.354-.083 0-.153-.01-.236-.01-.446 0-.905-.01-1.352-.01-2.692 0-4.88 1.882-4.88 4.199s2.188 4.2 4.88 4.2c.823 0 1.588-.143 2.587-.466.364-.112.729-.243 1.082-.375.517-.182 1.046-.374 1.575-.526a12.8 12.8 0 013.622-.526c1.716 0 3.115-1.204 3.115-2.682a1.588 1.588 0 00-.235-.9z"/><path d="M6.82 3.19c-1.094 0-1.976.698-1.976 1.548 0 .85.882 1.538 1.976 1.538 1.093 0 1.975-.698 1.975-1.548 0-.85-.882-1.538-1.975-1.538zm0 2.419c-.659 0-1.2-.395-1.2-.87 0-.486.541-.87 1.2-.87.658 0 1.199.384 1.199.87 0 .485-.541.87-1.2.87z"/></g><defs><clippath id="clip0"><path fill="#fff" transform="translate(0 .509)" d="M0 0h20v13.438H0z"/></clippath></defs></svg>