<svg width="20" height="22" fill="none" xmlns="http://www.w3.org/2000/svg"><g clip-path="url(#clip0)" fill="#961914"><path d="M7.242 9.399a2.421 2.421 0 00-2.326-1.74 2.421 2.421 0 00-2.326 1.74c-.776.486-1.42 1.238-1.873 2.167C.249 12.54 0 13.675 0 14.87c0 1.622.454 3.14 1.287 4.247.908 1.224 2.195 1.887 3.629 1.887 1.434 0 2.721-.663 3.628-1.887a.29.29 0 00-.058-.413c-.132-.103-.308-.074-.41.059-.79 1.061-1.917 1.651-3.16 1.651-1.244 0-2.37-.59-3.16-1.651-.761-1.018-1.17-2.404-1.17-3.893 0-1.106.219-2.167.658-3.037.424-.87 1.024-1.549 1.755-1.976a.26.26 0 00.132-.192A1.849 1.849 0 014.916 8.25 1.82 1.82 0 016.7 9.664a.35.35 0 00.131.192c.732.428 1.332 1.12 1.756 1.976.424.884.659 1.931.659 3.037 0 .988-.176 1.932-.527 2.758-.059.147 0 .324.16.383.147.059.323 0 .381-.162.38-.9.57-1.917.57-2.979 0-1.194-.248-2.344-.716-3.303-.44-.929-1.097-1.68-1.873-2.167z"/><path d="M2.721 13.026a.292.292 0 00-.365.207 5.897 5.897 0 00-.22 1.636c0 2.315 1.17 3.981 2.78 3.981 1.61 0 2.78-1.68 2.78-3.98s-1.17-3.982-2.78-3.982c-.732 0-1.405.354-1.902 1.003a.301.301 0 00.044.413c.131.103.307.073.41-.06.394-.5.892-.766 1.448-.766 1.273 0 2.194 1.43 2.194 3.391s-.921 3.392-2.194 3.392-2.195-1.43-2.195-3.392c0-.53.073-1.032.205-1.474a.307.307 0 00-.205-.369zM18.712 2.749C17.805 1.525 16.518.862 15.084.862c-1.434 0-2.736.663-3.628 1.887-.585.781-.995 1.784-1.17 2.89-.045.147.072.31.233.339a.307.307 0 00.337-.25c.16-1.003.527-1.917 1.068-2.625.79-1.062 1.902-1.652 3.16-1.652 1.244 0 2.37.59 3.16 1.652.761 1.017 1.17 2.403 1.17 3.892 0 1.106-.219 2.168-.658 3.038-.424.87-1.024 1.548-1.755 1.976a.26.26 0 00-.132.191 1.849 1.849 0 01-1.785 1.416A1.82 1.82 0 0113.3 12.2a.345.345 0 00-.146-.177c-.732-.427-1.332-1.12-1.756-1.975-.424-.885-.643-1.947-.643-3.053a.295.295 0 00-.293-.294.295.295 0 00-.293.294c0 1.195.249 2.345.717 3.303.454.93 1.097 1.681 1.873 2.168a2.421 2.421 0 002.326 1.74 2.421 2.421 0 002.326-1.74c.776-.487 1.434-1.239 1.873-2.168.468-.958.717-2.108.717-3.303 0-1.622-.468-3.125-1.288-4.246z"/><path d="M17.366 8.573c.161.03.322-.059.352-.221.102-.428.146-.885.146-1.357 0-2.315-1.17-3.98-2.78-3.98-1.61 0-2.794 1.68-2.794 3.98s1.17 3.981 2.78 3.981c.863 0 1.623-.486 2.15-1.356a.287.287 0 00-.102-.398.282.282 0 00-.395.103c-.41.693-.995 1.077-1.639 1.077-1.273 0-2.194-1.43-2.194-3.392 0-1.96.921-3.391 2.194-3.391s2.195 1.43 2.195 3.391c0 .428-.044.84-.132 1.224-.044.147.059.31.22.34zM4.287 16.196a.295.295 0 00-.293-.295.295.295 0 000 .59c.161 0 .293-.133.293-.295zM5.165 17.317a.294.294 0 00.292-.295.294.294 0 00-.292-.295.294.294 0 00-.293.295c0 .163.131.295.293.295zM5.677 13.35a.294.294 0 00.292-.294.294.294 0 00-.292-.295.294.294 0 00-.293.295c0 .163.131.295.293.295z"/><path d="M13.855 5.683c0 .162.132.295.293.295a.295.295 0 000-.59.295.295 0 00-.293.295zM15.318 5.152a.294.294 0 00.293-.295.294.294 0 00-.293-.295.294.294 0 00-.292.295c0 .163.13.295.292.295zM15.845 9.119a.294.294 0 00.292-.295.294.294 0 00-.292-.295.294.294 0 00-.293.295c0 .163.131.295.293.295z"/></g><defs><clippath id="clip0"><path fill="#fff" transform="translate(0 .862)" d="M0 0h20v20.156H0z"/></clippath></defs></svg>