<svg width="20" height="19" fill="none" xmlns="http://www.w3.org/2000/svg"><path d="M19.4 10.364a12.69 12.69 0 00-.637-1.12 19.494 19.494 0 01-1.543-2.922c-.038-.095-.089-.19-.127-.286a.312.312 0 00-.395-.131.274.274 0 00-.14.37c.038.083.076.155.114.238.395.978.918 1.955 1.581 3.005.242.37.446.739.612 1.073.37.727.548 1.335.548 1.8 0 2.886-2.614 5.246-5.827 5.246a6.403 6.403 0 01-2.869-.68c.51-.416.957-.893 1.34-1.43a7.337 7.337 0 001.249-3.231c.23-1.848-.268-3.53-1.288-4.293a2.734 2.734 0 00-1.913-.56c.14-.31.28-.62.408-.93.23-.56.638-1.037 1.173-1.383a3.51 3.51 0 012.143-.537c.79.048 1.53.358 2.09.87a.315.315 0 00.421 0 .268.268 0 000-.393 3.984 3.984 0 00-2.435-1.013c.064-.763.434-1.586 1.313-1.884a.279.279 0 00.179-.358c-.051-.143-.23-.214-.383-.167-1.147.394-1.632 1.455-1.696 2.409-.726.036-1.39.25-1.963.62a3.609 3.609 0 00-1.403 1.645c-.166.406-.37.835-.586 1.264-.612.155-1.174.453-1.645.692-.28.143-.549.286-.765.357a4.8 4.8 0 00-.345-1.383c1.428-.13 2.755-.846 3.583-1.955a4.431 4.431 0 00.663-4.173.286.286 0 00-.28-.191c-1.581.036-3.073.775-3.991 1.98-.65.87-.97 1.919-.905 2.956-.281-.262-.587-.44-.893-.512a.301.301 0 00-.37.19c-.038.143.051.298.217.346.88.227 1.594 1.586 1.721 2.73a3.593 3.593 0 01-.395-.178c-.102-.048-.217-.108-.332-.167-.688-.358-1.53-.787-2.435-.835a2.742 2.742 0 00-1.849.572C.593 8.564.108 9.637.02 10.937c-.153 2.027.625 4.101 2.091 5.556.115.107.306.12.421.012.115-.108.127-.286.013-.394-1.353-1.347-2.08-3.267-1.939-5.127.089-1.144.497-2.086 1.109-2.54.446-.321.918-.476 1.454-.44.765.035 1.517.417 2.18.763.127.06.242.119.357.178.191.096.344.167.485.215.178.06.344.095.484.095.37 0 .803-.214 1.339-.5 1.058-.537 2.384-1.228 3.621-.31.855.632 1.275 2.146 1.071 3.791a6.827 6.827 0 01-1.147 2.993c-.714 1.025-1.696 1.8-2.92 2.337-.268.12-.561.06-.918-.167a2.01 2.01 0 00-.97-.31h-.038a1.844 1.844 0 00-1.084.31c-.357.226-.65.274-.918.167a7.415 7.415 0 01-1.326-.74.307.307 0 00-.42.06c-.103.12-.077.298.063.394.434.31.918.584 1.428.799.179.083.357.107.536.107.382 0 .727-.155.969-.322.217-.143.472-.215.74-.203h.038c.23.012.459.084.65.203.37.238.918.465 1.505.215a8.185 8.185 0 001.326-.728 6.925 6.925 0 003.366.859c3.545 0 6.414-2.6 6.414-5.795 0-.56-.204-1.252-.6-2.05zM6.816 6.668l1.722-2.277 1.44.179a3.698 3.698 0 01-.267.405c-.676.906-1.734 1.514-2.895 1.693zM9.034 2.77l-.395-.81a4.493 4.493 0 011.326-.418L9.034 2.77zm1.415-.906c.14.727.064 1.478-.204 2.17l-1.313-.155 1.517-2.015zm-2.32.393l.523 1.05-.485.62-.395.512-.6-1.335a3.95 3.95 0 01.957-.847zm-1.352 1.42l.587 1.299-1.034 1.37a3.986 3.986 0 01.446-2.67z" fill="#961914"/></svg>