<svg width="20" height="20" fill="none" xmlns="http://www.w3.org/2000/svg"><g clip-path="url(#clip0)" fill="#961914"><path d="M20 11.037c0-1.343-.682-2.64-1.823-3.442a1.383 1.383 0 00-.81-.26c-.365 0-.706.136-.953.373-.047-.034-.094-.08-.141-.113a1.196 1.196 0 00-.612-.237l.142-1.501v-.113c0-.666-.565-1.196-1.247-1.196h-.082c-.694 0-1.247.542-1.247 1.196v.113l.142 1.512c-.2.034-.4.113-.565.237-.059.045-.106.09-.164.136-.024-.034-.06-.057-.094-.08.023-.112.035-.225.035-.327 0-.395-.13-.767-.365-1.083.236-.316.365-.688.365-1.083 0-1.061-.929-1.919-2.046-1.851a1.906 1.906 0 00-1.282-1.163 1.965 1.965 0 00-1.622-.7A1.927 1.927 0 005.808.216c-.705 0-1.34.36-1.681.925-.847.033-1.587.609-1.799 1.399C1.328 2.9.647 3.826.647 4.853c0 .823.423 1.59 1.128 2.042a1.853 1.853 0 00-.164.745c0 .553.258 1.072.705 1.422a1.886 1.886 0 00-.058.44c0 .948.74 1.738 1.704 1.84l.718 1.918c-.365.26-.682.587-.918.948l-1.693-.361a1.075 1.075 0 00-.2-.023c-.493 0-.905.384-.905.87v.123c0 .09.012.17.047.249H.964c-.529.011-.964.429-.964.937 0 .507.435.925.964.925h.047a.849.849 0 00-.047.248v.124c0 .474.4.87.905.87.071 0 .13-.012.2-.023l1.693-.361a3.575 3.575 0 003.01 1.625h.071c.176 0 .365-.012.54-.046l11.065-1.636c.894-.135 1.552-.857 1.552-1.738 0-.7-.423-1.298-1.046-1.58A4.174 4.174 0 0020 11.67v-.632zM15.885 8.09a3.755 3.755 0 011.54 3.014v1.14c0 .631-.165 1.252-.47 1.805l-2.587-.384a5.947 5.947 0 01-.165-1.365v-1.264c0-.316.036-.62.083-.937.082.011.153.011.235.011.917 0 1.61-.394 1.61-.925 0-.293-.211-.553-.575-.722l.047-.497a.774.774 0 01.282.124zM14.474 5.17h.082c.33 0 .6.26.6.575v.057l-.294 3.092.247.079c.282.09.376.203.376.225 0 .08-.341.305-.964.305s-.964-.237-.964-.305c0-.022.094-.135.376-.225l.247-.08-.306-3.091v-.057a.59.59 0 01.6-.575zm-1.047 2.81l.047.485c-.364.17-.576.429-.576.722 0 .339.294.62.741.79-.059.35-.094.711-.094 1.06v1.254c0 .428.047.846.13 1.264l-1.905-.283a3.503 3.503 0 01-.165-1.05v-1.116c0-1.174.588-2.303 1.575-3.014a.802.802 0 01.247-.112zm-3.48 5.033a3.461 3.461 0 01-.27-1.332v-.643c0-1.151.588-2.257 1.563-2.946a.699.699 0 01.424-.135c.2 0 .376.079.505.203a4.273 4.273 0 00-1.199 2.946v1.14c0 .315.035.631.106.947l-1.129-.18zm.024-9.3l.058.317.33-.068c.105-.023.2-.034.282-.034.717 0 1.293.553 1.293 1.242 0 .327-.13.632-.364.868l-.224.215.224.214c.235.237.364.542.364.87v.022c-.094-.011-.176-.023-.27-.023-.294 0-.576.09-.812.26A4.333 4.333 0 009.49 9.164a22.186 22.186 0 00-.377-1.05c.294-1.512 1.4-2.381 1.411-2.393l-.2-.248-.2-.237c-.047.034-.917.722-1.41 1.953-.67-1.479-1.306-2.438-1.34-2.494l-.553.327c.011.011.505.756 1.07 1.94-.953-.349-2.058-.247-2.117-.247l.059.62c.482-.045 1.858-.022 2.504.61.224.53.447 1.117.647 1.749-.976-.497-2.152-.497-2.21-.497v.61c.011 0 1.446.011 2.304.654a4.747 4.747 0 00-.047.576v.654c0 .418.07.824.188 1.22l-1.834-.272-.282-.033c-.718 0-1.294-.565-1.294-1.253 0-.147.036-.293.094-.44l.094-.237-.235-.124a1.22 1.22 0 01-.388-1.738l.2-.294-.317-.146a1.825 1.825 0 01-1.058-1.66c0-.823.576-1.557 1.399-1.782l.2-.057.035-.203c.082-.598.635-1.05 1.27-1.05h.035c.023 0 .047.012.07.012l.236.022.082-.214c.2-.463.67-.756 1.188-.756.623 0 1.152.44 1.258 1.027zm-5.55 7.031h-.223c-.718 0-1.294-.553-1.294-1.24 0-.148.035-.294.094-.441l.094-.237-.235-.135a1.22 1.22 0 01-.388-1.738l.2-.294-.317-.147a1.825 1.825 0 01-1.059-1.658c0-.824.576-1.558 1.4-1.784l.2-.056.035-.203c.094-.598.635-1.061 1.27-1.061h.035c.023 0 .047 0 .07.011l.236.023.094-.203c.188-.452.658-.745 1.175-.745.624 0 1.153.429 1.27 1.027l.059.316.33-.068c.105-.022.187-.034.281-.034.153 0 .294.034.424.08a1.86 1.86 0 00-1.14.846 1.914 1.914 0 00-1.8 1.4c-1 .349-1.681 1.274-1.681 2.313 0 .823.423 1.59 1.129 2.042a1.813 1.813 0 00-.165.745c0 .553.259 1.072.705 1.422a1.886 1.886 0 00-.058.44c0 .542.247 1.038.635 1.377a4.578 4.578 0 00-.553.203l-.823-2.2zM1.61 14.83v-.124c0-.158.153-.271.317-.237l1.54.327a1.17 1.17 0 00-.105.282H1.869a.256.256 0 01-.258-.248zm-.964 1.174a.31.31 0 01.317-.305H3.245c-.012.101-.012.203-.012.305 0 .101.012.203.012.304H.964a.31.31 0 01-.317-.304zm1.281 1.546c-.153.033-.317-.09-.317-.237v-.125c0-.135.117-.248.258-.248h1.494c.023.102.059.192.094.282l-1.529.328zm17.425-1.546c0 .564-.423 1.038-1 1.117L7.29 18.756a2.86 2.86 0 01-.447.034h-.07c-1.6 0-2.905-1.253-2.905-2.787 0-1.535 1.305-2.788 2.904-2.788h.071c.141 0 .294.011.447.034l11.064 1.636c.576.08 1 .553 1 1.118zm0-4.323c0 .948-.4 1.874-1.105 2.562l-.647-.09a4.296 4.296 0 00.447-1.908v-1.14a4.342 4.342 0 00-1.187-2.956.763.763 0 01.494-.192c.152 0 .305.045.423.135.976.689 1.564 1.795 1.564 2.946l.011.643z"/><path d="M6.455 14.456h.647v3.093h-.647v-3.093zM9.03 14.456h.647v3.093H9.03v-3.093zM11.617 14.456h.646v3.093h-.646v-3.093zM14.192 15.077h.646v1.862h-.646v-1.862zM16.767 15.382h.646v1.241h-.646v-1.241z"/></g><defs><clippath id="clip0"><path fill="#fff" transform="translate(0 .214)" d="M0 0h20v19.196H0z"/></clippath></defs></svg>