<svg width="20" height="19" fill="none" xmlns="http://www.w3.org/2000/svg"><path d="M19.589 6.301c.27-.35.411-.75.411-1.178 0-1.139-1.007-2.058-2.255-2.058-.468 0-.908.13-1.291.376a2.366 2.366 0 00-1.29-.376c-.469 0-.909.13-1.292.376a2.442 2.442 0 00-1.29-.376c-.469 0-.908.13-1.291.376a2.402 2.402 0 00-2.582 0 2.366 2.366 0 00-1.29-.376c-.469 0-.908.13-1.291.376V1.719L4.284.71h-.738v2.732c-.596.388-.964 1.01-.964 1.682 0 1.14 1.007 2.058 2.255 2.058.468 0 .908-.13 1.29-.375.384.246.823.375 1.291.375.469 0 .922-.13 1.291-.375.369.246.823.375 1.291.375.468 0 .908-.13 1.29-.375.37.246.824.375 1.292.375.468 0 .907-.13 1.29-.375.37.246.809.375 1.277.375.113 0 .241-.013.355-.026-.015.104-.029.208-.029.324 0 .116.014.22.029.324a2.447 2.447 0 00-1.646.349 2.252 2.252 0 00-1.276-.375c-.469 0-.908.13-1.291.375A2.402 2.402 0 0010 7.777c-.468 0-.908.13-1.29.375a2.298 2.298 0 00-1.292-.375c-.468 0-.922.13-1.29.375a2.366 2.366 0 00-1.291-.375c-.468 0-.908.13-1.29.375a2.366 2.366 0 00-1.292-.375C1.007 7.777 0 8.696 0 9.835c0 .44.142.84.411 1.177-.27.337-.411.751-.411 1.178 0 .427.142.829.411 1.178A1.9 1.9 0 000 14.533c0 1.139 1.007 2.058 2.255 2.058.468 0 .922-.143 1.291-.376.383.246.823.376 1.29.376.469 0 .909-.13 1.292-.376.383.246.822.376 1.29.376.469 0 .922-.143 1.291-.376.383.246.823.376 1.291.376.468 0 .908-.13 1.29-.376.37.233.824.376 1.292.376.468 0 .907-.13 1.29-.376v1.722l1.844 1.01h.738v-2.732c.596-.388.964-1.01.964-1.682 0-1.14-1.007-2.058-2.255-2.058-.468 0-.908.13-1.29.375a2.401 2.401 0 00-1.291-.375c-.469 0-.908.13-1.291.375a2.405 2.405 0 00-2.582 0 2.366 2.366 0 00-1.29-.375c-.469 0-.908.13-1.291.375a2.366 2.366 0 00-1.291-.375c-.114 0-.241.013-.355.026.014-.104.029-.207.029-.324 0-.103-.015-.22-.029-.323.114.013.227.026.355.026.482 0 .922-.143 1.29-.376.37.26.823.389 1.291.389.469 0 .908-.13 1.291-.376.369.233.823.376 1.291.376.468 0 .908-.13 1.29-.376.384.246.824.376 1.292.376.468 0 .907-.13 1.29-.376a2.405 2.405 0 002.582 0c.383.246.823.375 1.29.375 1.249 0 2.256-.918 2.256-2.057 0-.428-.142-.829-.411-1.178.27-.35.411-.75.411-1.178a2.03 2.03 0 00-.411-1.178zm-.653 2.55c.27.272.412.621.412.984 0 .815-.724 1.475-1.617 1.475-.284 0-.568-.078-.809-.194.298-.35.482-.79.482-1.268h-.638c0 .815-.723 1.475-1.617 1.475-.68 0-1.29-.388-1.518-.984l-.61.182c.085.22.199.414.355.582-.582.298-1.362.246-1.872-.181l-.213-.168-.227.168a1.623 1.623 0 01-1.064.375c-.68 0-1.277-.388-1.518-.97l-.61.207c.085.207.199.4.355.569a1.833 1.833 0 01-1.603 0c.284-.35.468-.79.468-1.268h-.638c0 .815-.723 1.475-1.617 1.475-.213 0-.411-.039-.596-.103a2.211 2.211 0 00-.78-.764l-.355.492c.468.272.752.737.752 1.242 0 .194-.042.376-.113.544-.695.35-1.178 1.022-1.178 1.799h.639c0-.815.723-1.476 1.617-1.476.397 0 .78.13 1.078.376l.212.181.213-.181c.525-.389 1.305-.453 1.901-.155a1.93 1.93 0 00-.482 1.268h.638c0-.414.199-.816.539-1.1.298-.233.68-.363 1.078-.363.894 0 1.617.66 1.617 1.476h.638c0-.479-.184-.92-.482-1.269.582-.297 1.362-.245 1.887.169l.212.18.213-.18a1.69 1.69 0 011.078-.376c.894 0 1.617.66 1.617 1.476 0 .518-.312 1.01-.808 1.268l-.156.09v2.421l-1.291-.712v-1.708l-.156-.09a1.89 1.89 0 01-.27-.182l-.213-.181-.212.181a1.69 1.69 0 01-1.078.375c-.667 0-1.277-.375-1.504-.944l-.61.207c.085.194.199.375.34.543a1.833 1.833 0 01-1.602 0c.156-.18.27-.375.354-.595l-.638-.194c-.227.595-.837.983-1.518.983-.397 0-.78-.129-1.078-.375l-.212-.181-.213.181c-.51.414-1.29.479-1.872.168.156-.18.27-.375.354-.595l-.61-.194c-.227.595-.837.983-1.518.983-.893 0-1.617-.66-1.617-1.475 0-.815.724-1.476 1.617-1.476v-.569c-.524 0-1.007.168-1.39.44a1.364 1.364 0 01-.212-.738c0-.259.07-.517.212-.737.298.207.639.349 1.036.414l.1-.583C1.22 11.168.637 10.56.637 9.835c0-.816.724-1.476 1.617-1.476.397 0 .78.13 1.078.375l.213.182.213-.182c.51-.414 1.29-.478 1.872-.168a2.033 2.033 0 00-.34.583l.61.194c.227-.583.837-.984 1.517-.984.894 0 1.617.66 1.617 1.476h.639c0-.48-.185-.92-.483-1.269.582-.297 1.362-.246 1.873.168l.213.182.227-.182a1.69 1.69 0 011.078-.375c.879 0 1.602.66 1.602 1.476h.639c0-.48-.185-.92-.483-1.269.426-.22.95-.259 1.419-.09.085.129.184.258.298.375l.482-.388a1.39 1.39 0 01-.298-1.54 2.76 2.76 0 00.412-.272l-.426-.44c-.298.246-.68.375-1.078.375-.68 0-1.29-.388-1.518-.984l-.61.207c.085.22.199.415.355.583-.582.297-1.362.246-1.872-.168l-.213-.182-.227.182c-.51.414-1.291.465-1.873.168a2.07 2.07 0 00.355-.583l-.61-.194c-.227.583-.837.984-1.518.984-.397 0-.78-.13-1.078-.375l-.212-.182-.213.182c-.298.233-.681.375-1.078.375-.894 0-1.617-.66-1.617-1.476 0-.517.312-1.01.808-1.268l.156-.09V1.343l1.291.712v1.708l.156.091c.1.052.185.116.27.181l.227.168.212-.18c.511-.415 1.291-.467 1.887-.169-.312.35-.482.79-.482 1.268h.638c0-.815.723-1.475 1.617-1.475.397 0 .78.13 1.078.375l.213.181.213-.18a1.69 1.69 0 011.078-.376c.879 0 1.602.66 1.602 1.475h.639c0-.479-.185-.919-.483-1.268.582-.298 1.362-.246 1.887.168l.213.181.212-.18a1.69 1.69 0 011.078-.376c.894 0 1.617.66 1.617 1.475 0 .26-.085.518-.212.738a2.402 2.402 0 00-1.39-.44v.582c.893 0 1.617.66 1.617 1.476 0 .362-.142.712-.412.984l-.198.194.184.194z" fill="#961914"/></svg>