<svg width="20" height="21" fill="none" xmlns="http://www.w3.org/2000/svg"><g clip-path="url(#clip0)" fill="#961914"><path d="M19.28 3.932a2.538 2.538 0 00-1.745-.694 2.29 2.29 0 00-.723-1.642c-.953-.914-2.522-.914-3.475 0-.829.779-.934 1.98-.37 2.895l-9.189 8.853c-.935-.542-2.222-.457-3.051.355a2.303 2.303 0 000 3.335c.459.44 1.094.694 1.746.694 0 .627.265 1.236.723 1.676.953.914 2.522.914 3.475 0 .917-.88.952-2.268.176-3.182l9.118-8.786c.97.745 2.416.694 3.316-.17a2.303 2.303 0 000-3.334zm-.828 2.54c-.494.473-1.358.49-1.87 0-.07-.069-.105-.102-.158-.17a.567.567 0 00-.847-.068c-.018.017-9.965 9.598-10 9.65-.212.253-.176.625.106.812.653.457.723 1.388.159 1.913a1.338 1.338 0 01-1.817 0 1.266 1.266 0 01-.282-1.372c.194-.457-.282-.914-.758-.727a1.417 1.417 0 01-1.429-.271c-.794-.762-.265-2.116.935-2.116.352 0 .688.135.934.355.23.22.6.22.83 0C14.871 4.237 14.218 4.897 14.29 4.761a.553.553 0 00-.124-.643 1.211 1.211 0 010-1.743 1.338 1.338 0 011.817 0c.37.355.476.863.282 1.32a.54.54 0 000 .406.61.61 0 00.758.322 1.417 1.417 0 011.429.27c.511.509.511 1.287 0 1.778z"/><path d="M6.473 7.843c.229.22.6.22.829 0a.546.546 0 000-.796L5.309 5.134a.603.603 0 00-.83 0 .546.546 0 000 .796l1.994 1.913zM2.187 9.857h2.804a.576.576 0 00.582-.559.576.576 0 00-.582-.558H2.187a.576.576 0 00-.582.558c0 .322.265.559.582.559zM8.818 6.2a.576.576 0 00.582-.558V2.933a.576.576 0 00-.582-.558.576.576 0 00-.582.558v2.709c0 .304.247.558.582.558zM13.598 13.158a.603.603 0 00-.829 0 .546.546 0 000 .796l1.993 1.912a.62.62 0 00.406.17c.511 0 .776-.61.405-.965l-1.975-1.913zM17.884 11.143h-2.822a.576.576 0 00-.582.559c0 .305.264.559.582.559h2.804a.576.576 0 00.582-.56c.018-.304-.247-.558-.564-.558zM11.252 14.8a.576.576 0 00-.582.558v2.692c0 .305.265.559.582.559a.576.576 0 00.582-.559v-2.692a.576.576 0 00-.582-.558z"/></g><defs><clippath id="clip0"><path fill="#fff" transform="translate(0 .902)" d="M0 0h20v19.196H0z"/></clippath></defs></svg>