<svg width="20" height="15" fill="none" xmlns="http://www.w3.org/2000/svg"><g clip-path="url(#clip0)"><path d="M13.634.588c-.268 0-.451.194-.451.477s.183.477.451.477c3.007 0 5.463.09 5.463.865 0 1.877-4.503 3.979-7.142 5.186-.325-.283-.55-.954-.55-1.49 0-.537.183-1.014.493-1.342.494-.477.777-1.252.777-2.012 0-.909-.452-1.729-1.228-2.116-.043-.045-.141-.045-.184-.045-.62-.06-1.312-.104-1.948-.149C8.271.335 7.185.245 6.182.245c-2.95 0-4.404 1.387-5.138 2.55C.55 3.598 0 5.088 0 6.444c0 1.297.55 2.981.96 4.323.084.238.14.477.226.67.084.284.183.567.225.805.41 1.342.678 2.4 1.906 2.4.677 0 1.454-.775 2.766-2.161.875-.91 1.877-1.908 2.513-2.25a17.594 17.594 0 011.595-.716c.225-.105.31-.388.225-.626a.437.437 0 00-.592-.239c-.593.284-1.144.522-1.595.716-.819.387-1.821 1.445-2.767 2.444-.734.73-1.82 1.878-2.145 1.878-.452 0-.635-.343-1.002-1.729-.085-.238-.127-.522-.226-.82-.085-.238-.141-.477-.226-.715C1.453 9.128.96 7.548.96 6.445c0-1.251.55-2.548.86-3.07C2.683 1.93 4.179 1.2 6.225 1.2c.96 0 2.047.09 3.091.194.636.045 1.27.09 1.906.15.41.238.635.67.635 1.206 0 .537-.184 1.014-.494 1.342-.494.477-.762 1.237-.762 2.012 0 .715.325 1.967 1.228 2.444a.515.515 0 00.367 0c3.91-1.818 7.82-3.786 7.82-6.14C20 .677 17.684.588 13.634.588z" fill="#961914"/></g><defs><clippath id="clip0"><path fill="#fff" transform="translate(0 .245)" d="M0 0h20v14.397H0z"/></clippath></defs></svg>