<svg width="40" height="51" fill="none" xmlns="http://www.w3.org/2000/svg"><path d="M15.314 30.309c5.377-2.777 10.398-6.127 15.067-9.939.682-.58-.332-1.522-1.014-.941a83.55 83.55 0 01-14.794 9.733c-.8.39-.059 1.564.74 1.147zM2.15 21.107A116.02 116.02 0 016.666 2.072c.252-.845-1.105-1.161-1.385-.315C3.247 7.962 1.75 14.343.764 20.79c-.11.896 1.248 1.213 1.386.316zM20.032 46.128c6.292 1.014 12.556 2.028 18.848 3.041.875.138 1.221-1.213.319-1.35-6.292-1.013-12.556-2.027-18.848-3.04-.875-.166-1.222 1.185-.319 1.35z" fill="#fff"/></svg>