<svg width="20" height="21" viewBox="0 0 20 21" fill="none" xmlns="http://www.w3.org/2000/svg">
<g clip-path="url(#clip0)">
<path d="M19.2808 3.93194C18.8223 3.49181 18.1874 3.23789 17.5348 3.23789C17.5348 2.62848 17.2703 2.036 16.8117 1.59587C15.8593 0.681749 14.2897 0.681749 13.3373 1.59587C12.5083 2.37456 12.4025 3.57645 12.9669 4.49057L3.77819 13.3439C2.84344 12.8022 1.55597 12.8869 0.727042 13.6994C-0.225339 14.6136 -0.225339 16.1202 0.727042 17.0343C1.1856 17.4744 1.82052 17.7283 2.47307 17.7283C2.47307 18.3547 2.73762 18.9641 3.19618 19.4042C4.14856 20.3183 5.71822 20.3183 6.6706 19.4042C7.58771 18.5239 7.62299 17.1358 6.84697 16.2217L15.9651 7.43605C16.9352 8.18089 18.3814 8.1301 19.2808 7.26677C20.2332 6.35265 20.2332 4.84606 19.2808 3.93194ZM18.4519 6.47115C17.9581 6.94514 17.0939 6.96206 16.5824 6.47115C16.5119 6.40344 16.4766 6.36958 16.4237 6.30187C16.2297 6.03102 15.824 5.99716 15.5771 6.23416C15.5595 6.25109 5.6124 15.8324 5.57713 15.8832C5.36549 16.1371 5.40076 16.5095 5.68295 16.6957C6.33551 17.1528 6.40605 18.0838 5.84168 18.6086C5.34785 19.0826 4.51893 19.0826 4.0251 18.6086C3.67237 18.27 3.54891 17.7114 3.74292 17.2374C3.93692 16.7803 3.46073 16.3233 2.98454 16.5095C2.50835 16.6957 1.92634 16.5772 1.55597 16.2386C0.762315 15.4769 1.29142 14.1226 2.49071 14.1226C2.84344 14.1226 3.17854 14.2581 3.42545 14.4781C3.65473 14.6982 4.0251 14.6982 4.25438 14.4781C14.8717 4.23664 14.2191 4.89684 14.2897 4.76142C14.3955 4.54135 14.3426 4.28743 14.1662 4.11815C13.6724 3.64416 13.6724 2.84854 14.1662 2.37456C14.66 1.90057 15.4889 1.90057 15.9828 2.37456C16.3531 2.73005 16.459 3.23789 16.265 3.69495C16.2121 3.81344 16.2121 3.9658 16.265 4.10122C16.3884 4.389 16.7235 4.52442 17.0233 4.42285C17.4995 4.23664 18.0815 4.35514 18.4519 4.6937C18.9634 5.20155 18.9634 5.98024 18.4519 6.47115Z" fill="#961914"/>
<path d="M6.4727 7.84254C6.70198 8.0626 7.07235 8.0626 7.30163 7.84254C7.5309 7.62247 7.5309 7.26698 7.30163 7.04692L5.30868 5.13404C5.0794 4.91398 4.70903 4.91398 4.47976 5.13404C4.25048 5.35411 4.25048 5.7096 4.47976 5.92966L6.4727 7.84254Z" fill="#961914"/>
<path d="M2.18699 9.85688H4.99122C5.30868 9.85688 5.57324 9.60296 5.57324 9.29825C5.57324 8.99354 5.30868 8.73962 4.99122 8.73962H2.18699C1.86953 8.73962 1.60498 8.99354 1.60498 9.29825C1.60498 9.61988 1.86953 9.85688 2.18699 9.85688Z" fill="#961914"/>
<path d="M8.8184 6.20038C9.13586 6.20038 9.40041 5.94646 9.40041 5.64175V2.93326C9.40041 2.62855 9.13586 2.37463 8.8184 2.37463C8.50094 2.37463 8.23639 2.62855 8.23639 2.93326V5.64175C8.23639 5.94646 8.4833 6.20038 8.8184 6.20038Z" fill="#961914"/>
<path d="M13.5979 13.1578C13.3687 12.9378 12.9983 12.9378 12.769 13.1578C12.5397 13.3779 12.5397 13.7334 12.769 13.9535L14.7619 15.8663C14.8678 15.9679 15.0265 16.0356 15.1676 16.0356C15.6791 16.0356 15.9436 15.4262 15.5732 15.0707L13.5979 13.1578Z" fill="#961914"/>
<path d="M17.8836 11.1433H15.0617C14.7443 11.1433 14.4797 11.3972 14.4797 11.7019C14.4797 12.0066 14.7443 12.2606 15.0617 12.2606H17.866C18.1834 12.2606 18.448 12.0066 18.448 11.7019C18.4656 11.3972 18.2011 11.1433 17.8836 11.1433Z" fill="#961914"/>
<path d="M11.2522 14.7998C10.9348 14.7998 10.6702 15.0537 10.6702 15.3584V18.05C10.6702 18.3547 10.9348 18.6086 11.2522 18.6086C11.5697 18.6086 11.8342 18.3547 11.8342 18.05V15.3584C11.8342 15.0537 11.5697 14.7998 11.2522 14.7998Z" fill="#961914"/>
</g>
<defs>
<clipPath id="clip0">
<rect width="20" height="19.1964" fill="white" transform="translate(0 0.901733)"/>
</clipPath>
</defs>
</svg>
