<svg width="20" height="19" viewBox="0 0 20 19" fill="none" xmlns="http://www.w3.org/2000/svg">
<path d="M19.5887 6.30119C19.8582 5.95173 20 5.5505 20 5.12338C20 3.9844 18.9929 3.06545 17.7447 3.06545C17.2766 3.06545 16.8369 3.19488 16.4539 3.4408C16.0709 3.19488 15.6312 3.06545 15.1631 3.06545C14.695 3.06545 14.2553 3.19488 13.8723 3.4408C13.5035 3.20783 13.0496 3.06545 12.5816 3.06545C12.1135 3.06545 11.6738 3.19488 11.2908 3.4408C10.9078 3.19488 10.4539 3.06545 10 3.06545C9.51773 3.06545 9.07801 3.20783 8.70922 3.4408C8.32624 3.19488 7.88652 3.06545 7.41844 3.06545C6.95035 3.06545 6.51064 3.19488 6.12766 3.4408V1.71939L4.28369 0.709839H3.5461V3.4408C2.95035 3.82909 2.58156 4.45035 2.58156 5.12338C2.58156 6.26236 3.58865 7.18131 4.83688 7.18131C5.30496 7.18131 5.74468 7.05188 6.12766 6.80596C6.51064 7.05188 6.95035 7.18131 7.41844 7.18131C7.88652 7.18131 8.34042 7.05188 8.70922 6.80596C9.07801 7.05188 9.53191 7.18131 10 7.18131C10.4681 7.18131 10.9078 7.05188 11.2908 6.80596C11.6596 7.05188 12.1135 7.18131 12.5816 7.18131C13.0496 7.18131 13.4894 7.05188 13.8723 6.80596C14.2411 7.05188 14.6809 7.18131 15.1489 7.18131C15.2624 7.18131 15.3901 7.16837 15.5035 7.15542C15.4894 7.25897 15.4752 7.36251 15.4752 7.479C15.4752 7.59548 15.4894 7.69903 15.5035 7.80257C14.9362 7.72491 14.3404 7.8414 13.8582 8.15203C13.5035 7.90611 13.0496 7.77669 12.5816 7.77669C12.1135 7.77669 11.6738 7.90611 11.2908 8.15203C10.9078 7.90611 10.4539 7.77669 10 7.77669C9.53191 7.77669 9.0922 7.90611 8.70922 8.15203C8.34042 7.90611 7.90071 7.77669 7.41844 7.77669C6.95035 7.77669 6.49645 7.90611 6.12766 8.15203C5.74468 7.90611 5.30496 7.77669 4.83688 7.77669C4.36879 7.77669 3.92908 7.90611 3.5461 8.15203C3.16312 7.90611 2.7234 7.77669 2.25532 7.77669C1.00709 7.77669 0 8.69563 0 9.83461C0 10.2747 0.141844 10.6759 0.411347 11.0124C0.141844 11.3489 0 11.7631 0 12.1902C0 12.6173 0.141844 13.0186 0.411347 13.368C0.156028 13.6916 0 14.1058 0 14.5329C0 15.6719 1.00709 16.5908 2.25532 16.5908C2.7234 16.5908 3.1773 16.4485 3.5461 16.2155C3.92908 16.4614 4.36879 16.5908 4.83688 16.5908C5.30496 16.5908 5.74468 16.4614 6.12766 16.2155C6.51064 16.4614 6.95035 16.5908 7.41844 16.5908C7.88652 16.5908 8.34042 16.4485 8.70922 16.2155C9.0922 16.4614 9.53191 16.5908 10 16.5908C10.4681 16.5908 10.9078 16.4614 11.2908 16.2155C11.6596 16.4485 12.1135 16.5908 12.5816 16.5908C13.0496 16.5908 13.4894 16.4614 13.8723 16.2155V17.9369L15.7163 18.9464H16.4539V16.2155C17.0496 15.8272 17.4184 15.2059 17.4184 14.5329C17.4184 13.3939 16.4113 12.475 15.1631 12.475C14.695 12.475 14.2553 12.6044 13.8723 12.8503C13.4894 12.6044 13.0355 12.475 12.5816 12.475C12.1135 12.475 11.6738 12.6044 11.2908 12.8503C10.922 12.6173 10.4823 12.475 10 12.475C9.53191 12.475 9.0922 12.6044 8.70922 12.8503C8.32624 12.6044 7.88652 12.475 7.41844 12.475C6.95035 12.475 6.51064 12.6044 6.12766 12.8503C5.74468 12.6044 5.30496 12.475 4.83688 12.475C4.7234 12.475 4.59574 12.4879 4.48227 12.5009C4.49645 12.3973 4.51064 12.2938 4.51064 12.1773C4.51064 12.0737 4.49645 11.9573 4.48227 11.8537C4.59574 11.8667 4.70922 11.8796 4.83688 11.8796C5.31915 11.8796 5.75887 11.7372 6.12766 11.5043C6.49645 11.7631 6.95035 11.8925 7.41844 11.8925C7.88652 11.8925 8.32624 11.7631 8.70922 11.5172C9.07801 11.7502 9.53191 11.8925 10 11.8925C10.4681 11.8925 10.9078 11.7631 11.2908 11.5172C11.6738 11.7631 12.1135 11.8925 12.5816 11.8925C13.0496 11.8925 13.4894 11.7631 13.8723 11.5172C14.2411 11.7502 14.695 11.8925 15.1631 11.8925C15.6454 11.8925 16.0851 11.7502 16.4539 11.5172C16.8369 11.7631 17.2766 11.8925 17.7447 11.8925C18.9929 11.8925 20 10.9736 20 9.83461C20 9.4075 19.8582 9.00626 19.5887 8.65681C19.8582 8.30735 20 7.90611 20 7.479C19.9858 7.03894 19.844 6.63771 19.5887 6.30119ZM18.9362 8.85095C19.2057 9.12275 19.3475 9.47221 19.3475 9.83461C19.3475 10.65 18.6241 11.3101 17.7305 11.3101C17.4468 11.3101 17.1631 11.2325 16.922 11.116C17.2199 10.7665 17.4043 10.3264 17.4043 9.84756H16.766C16.766 10.663 16.0426 11.3231 15.1489 11.3231C14.4681 11.3231 13.8582 10.9348 13.6312 10.3394L13.0213 10.5206C13.1064 10.7406 13.2199 10.9348 13.3759 11.103C12.7943 11.4007 12.0142 11.3489 11.5035 10.9218L11.2908 10.7536L11.0638 10.9218C10.7801 11.1677 10.3972 11.2972 10 11.2972C9.31915 11.2972 8.7234 10.9089 8.48227 10.3264L7.87234 10.5335C7.95745 10.7406 8.07092 10.9348 8.22695 11.103C7.7305 11.3489 7.10638 11.3489 6.62411 11.103C6.9078 10.7536 7.0922 10.3135 7.0922 9.83461H6.4539C6.4539 10.65 5.7305 11.3101 4.83688 11.3101C4.62411 11.3101 4.42553 11.2713 4.24113 11.2066C4.05674 10.8959 3.78723 10.6371 3.46099 10.4429L3.10638 10.9348C3.57447 11.2066 3.85816 11.6725 3.85816 12.1773C3.85816 12.3714 3.8156 12.5526 3.74468 12.7209C3.04965 13.0703 2.56738 13.7434 2.56738 14.52H3.20567C3.20567 13.7046 3.92908 13.0445 4.82269 13.0445C5.21986 13.0445 5.60284 13.1739 5.90071 13.4198L6.11347 13.601L6.32624 13.4198C6.85106 13.0315 7.63121 12.9668 8.22695 13.2645C7.91489 13.6269 7.74468 14.067 7.74468 14.5329H8.38298C8.38298 14.1187 8.58156 13.7175 8.92199 13.4328C9.21986 13.1998 9.60284 13.0703 10 13.0703C10.8936 13.0703 11.617 13.7304 11.617 14.5458H12.2553C12.2553 14.067 12.0709 13.6269 11.773 13.2774C12.3546 12.9797 13.1348 13.0315 13.6596 13.4457L13.8723 13.6269L14.0851 13.4457C14.383 13.1998 14.766 13.0703 15.1631 13.0703C16.0567 13.0703 16.7801 13.7304 16.7801 14.5458C16.7801 15.0636 16.4681 15.5554 15.9716 15.8143L15.8156 15.9049V18.3252L14.5248 17.6133V15.9049L14.3688 15.8143C14.2695 15.7625 14.1844 15.6978 14.0993 15.6331L13.8865 15.4519L13.6738 15.6331C13.3759 15.879 12.9929 16.0084 12.5957 16.0084C11.9291 16.0084 11.3191 15.6331 11.0922 15.0636L10.4823 15.2706C10.5674 15.4648 10.6809 15.646 10.8227 15.8143C10.3262 16.0602 9.70213 16.0602 9.21986 15.8143C9.37589 15.6331 9.48936 15.4389 9.57447 15.2189L8.93617 15.0247C8.70922 15.6201 8.09929 16.0084 7.41844 16.0084C7.02128 16.0084 6.6383 15.879 6.34042 15.6331L6.12766 15.4519L5.91489 15.6331C5.40426 16.0472 4.62411 16.1119 4.04255 15.8013C4.19858 15.6201 4.31206 15.426 4.39716 15.2059L3.78723 15.0118C3.56028 15.6072 2.95035 15.9955 2.2695 15.9955C1.37589 15.9955 0.652482 15.3354 0.652482 14.52C0.652482 13.7046 1.37589 13.0445 2.2695 13.0445V12.475C1.74468 12.475 1.26241 12.6432 0.879433 12.915C0.737589 12.695 0.666667 12.4361 0.666667 12.1773C0.666667 11.9184 0.737589 11.6596 0.879433 11.4395C1.1773 11.6466 1.51773 11.789 1.91489 11.8537L2.01418 11.2713C1.21986 11.1677 0.638298 10.5594 0.638298 9.83461C0.638298 9.01921 1.3617 8.35912 2.25532 8.35912C2.65248 8.35912 3.03546 8.48855 3.33333 8.73446L3.5461 8.91566L3.75887 8.73446C4.2695 8.32029 5.04965 8.25557 5.63121 8.56621C5.48936 8.73446 5.37589 8.92861 5.29078 9.14864L5.90071 9.34278C6.12766 8.76035 6.73759 8.35912 7.41844 8.35912C8.31206 8.35912 9.03546 9.01921 9.03546 9.83461H9.67376C9.67376 9.35572 9.48936 8.91566 9.19149 8.56621C9.77305 8.26852 10.5532 8.32029 11.0638 8.73446L11.2766 8.91566L11.5035 8.73446C11.8014 8.48855 12.1844 8.35912 12.5816 8.35912C13.461 8.35912 14.1844 9.01921 14.1844 9.83461H14.8227C14.8227 9.35572 14.6383 8.91566 14.3404 8.56621C14.766 8.34618 15.2908 8.30735 15.7589 8.4756C15.844 8.60503 15.9433 8.73446 16.0567 8.85095L16.539 8.46266C16.2695 8.19086 16.1277 7.8414 16.1277 7.479C16.1277 7.28485 16.1702 7.10365 16.2411 6.92245C16.383 6.84479 16.5248 6.75419 16.6525 6.65065L16.2269 6.21059C15.9291 6.45651 15.5461 6.58593 15.1489 6.58593C14.4681 6.58593 13.8582 6.19765 13.6312 5.60227L13.0213 5.80936C13.1064 6.02939 13.2199 6.22353 13.3759 6.39179C12.7943 6.68948 12.0142 6.63771 11.5035 6.22353L11.2908 6.04233L11.0638 6.22353C10.5532 6.63771 9.77305 6.68948 9.19149 6.39179C9.33333 6.22353 9.46099 6.02939 9.5461 5.80936L8.93617 5.61521C8.70922 6.19765 8.09929 6.59888 7.41844 6.59888C7.02128 6.59888 6.6383 6.46945 6.34042 6.22353L6.12766 6.04233L5.91489 6.22353C5.61702 6.45651 5.23404 6.59888 4.83688 6.59888C3.94326 6.59888 3.21986 5.93879 3.21986 5.12338C3.21986 4.60566 3.53191 4.11383 4.02837 3.85497L4.1844 3.76437V1.34404L5.47518 2.0559V3.76437L5.63121 3.85497C5.7305 3.90675 5.8156 3.97146 5.90071 4.03617L6.12766 4.20443L6.34042 4.02323C6.85106 3.60906 7.63121 3.55729 8.22695 3.85497C7.91489 4.20443 7.74468 4.64449 7.74468 5.12338H8.38298C8.38298 4.30798 9.10638 3.64789 10 3.64789C10.3972 3.64789 10.7801 3.77732 11.078 4.02323L11.2908 4.20443L11.5035 4.02323C11.8014 3.77732 12.1844 3.64789 12.5816 3.64789C13.461 3.64789 14.1844 4.30798 14.1844 5.12338H14.8227C14.8227 4.64449 14.6383 4.20443 14.3404 3.85497C14.922 3.55729 15.7021 3.60906 16.2269 4.02323L16.4397 4.20443L16.6525 4.02323C16.9504 3.77732 17.3333 3.64789 17.7305 3.64789C18.6241 3.64789 19.3475 4.30798 19.3475 5.12338C19.3475 5.38224 19.2624 5.6411 19.1348 5.86113C18.7518 5.58933 18.2695 5.42107 17.7447 5.42107V6.0035C18.6383 6.0035 19.3617 6.66359 19.3617 7.479C19.3617 7.8414 19.2199 8.19086 18.9504 8.46266L18.7518 8.65681L18.9362 8.85095Z" fill="#961914"/>
</svg>
