<svg width="20" height="15" viewBox="0 0 20 15" fill="none" xmlns="http://www.w3.org/2000/svg">
<g clip-path="url(#clip0)">
<path d="M13.6344 0.588277C13.3663 0.588277 13.1828 0.78203 13.1828 1.06521C13.1828 1.34838 13.3663 1.54214 13.6344 1.54214C16.6408 1.54214 19.0967 1.63156 19.0967 2.40657C19.0967 4.28448 14.5942 6.38596 11.9548 7.59318C11.6302 7.31001 11.4044 6.63933 11.4044 6.10278C11.4044 5.56623 11.5879 5.0893 11.8984 4.76141C12.3924 4.28448 12.6747 3.50947 12.6747 2.74937C12.6747 1.84022 12.223 1.02049 11.4467 0.632989C11.4044 0.588277 11.3056 0.588277 11.2632 0.588277C10.6422 0.528661 9.9506 0.483948 9.31546 0.439236C8.271 0.334908 7.18419 0.245483 6.18208 0.245483C3.23218 0.245483 1.77841 1.63156 1.04446 2.79408C0.550459 3.5989 0 5.0893 0 6.44557C0 7.74223 0.550459 9.42638 0.959774 10.7677C1.04446 11.0062 1.10092 11.2447 1.1856 11.4384C1.27029 11.7216 1.36909 12.0048 1.41143 12.2433C1.82075 13.5846 2.08892 14.6428 3.31687 14.6428C3.99435 14.6428 4.77064 13.8678 6.08327 12.4817C6.95836 11.5726 7.96048 10.574 8.59562 10.2312C9.04728 9.99274 9.59774 9.75427 10.1905 9.51581C10.4164 9.41148 10.5011 9.1283 10.4164 8.88984C10.3317 8.65137 10.0494 8.54704 9.82357 8.65137C9.23077 8.93455 8.68031 9.17302 8.22865 9.36677C7.41002 9.75427 6.4079 10.8125 5.46224 11.811C4.7283 12.5413 3.6415 13.6889 3.31687 13.6889C2.86521 13.6889 2.68172 13.3462 2.31475 11.9601C2.23006 11.7216 2.18772 11.4384 2.08892 11.1404C2.00423 10.9019 1.94778 10.6634 1.86309 10.425C1.45378 9.1283 0.959774 7.54847 0.959774 6.44557C0.959774 5.19363 1.51023 3.89698 1.82075 3.37534C2.68172 1.92964 4.17784 1.19934 6.22442 1.19934C7.18419 1.19934 8.271 1.28877 9.31546 1.3931C9.9506 1.43781 10.5857 1.48252 11.2209 1.54214C11.6302 1.7806 11.856 2.21282 11.856 2.74937C11.856 3.28591 11.6725 3.76284 11.362 4.09073C10.868 4.56766 10.5999 5.32777 10.5999 6.10278C10.5999 6.81817 10.9245 8.07012 11.8278 8.54705C11.9689 8.59176 12.096 8.59176 12.1948 8.54705C16.1044 6.72875 20.0141 4.76141 20.0141 2.40657C20 0.677701 17.6853 0.588277 13.6344 0.588277Z" fill="#961914"/>
</g>
<defs>
<clipPath id="clip0">
<rect width="20" height="14.3973" fill="white" transform="translate(0 0.245483)"/>
</clipPath>
</defs>
</svg>
