<svg width="20" height="19" viewBox="0 0 20 19" fill="none" xmlns="http://www.w3.org/2000/svg">
<path d="M19.4007 10.3643C19.2222 10.0066 19.0054 9.62503 18.7631 9.24349C18.1128 8.21809 17.6155 7.26423 17.2203 6.32229C17.182 6.22691 17.131 6.13152 17.0927 6.03613C17.0162 5.89305 16.8377 5.84536 16.6975 5.90498C16.5444 5.97652 16.4934 6.14344 16.5572 6.2746C16.5955 6.35806 16.6337 6.4296 16.672 6.51306C17.0672 7.49077 17.59 8.46848 18.2531 9.51772C18.4954 9.88734 18.6994 10.257 18.8652 10.5908C19.2349 11.3181 19.4134 11.9262 19.4134 12.3912C19.4134 15.2766 16.7995 17.6375 13.5862 17.6375C12.5789 17.6375 11.597 17.399 10.7172 16.9578C11.2272 16.5405 11.6735 16.0636 12.0561 15.527C12.7191 14.5732 13.1527 13.4643 13.3057 12.2958C13.5352 10.4477 13.0379 8.76656 12.0178 8.00347C11.3802 7.52654 10.7299 7.39538 10.1051 7.44308C10.2454 7.13307 10.3857 6.82307 10.5132 6.51306C10.7427 5.95267 11.1507 5.47574 11.6863 5.12997C12.2473 4.77227 12.8976 4.5815 13.5862 4.5815C13.6754 4.5815 13.752 4.5815 13.8285 4.59342C14.619 4.64111 15.3586 4.95112 15.9196 5.46382C16.0344 5.57113 16.2257 5.57113 16.3404 5.46382C16.4552 5.35651 16.4552 5.17766 16.3404 5.07035C15.6901 4.47419 14.823 4.11649 13.905 4.05687C13.9687 3.29379 14.3385 2.47108 15.2183 2.173C15.3713 2.12531 15.4479 1.95838 15.3968 1.8153C15.3458 1.67222 15.1673 1.60069 15.0143 1.64838C13.8667 2.04185 13.3822 3.10301 13.3184 4.05687C12.5916 4.09264 11.9285 4.30726 11.3547 4.67688C10.7172 5.08227 10.2326 5.65459 9.95212 6.32229C9.78636 6.72768 9.58234 7.15692 9.36557 7.58616C8.75352 7.74116 8.19247 8.03924 7.72068 8.2777C7.44015 8.42078 7.17238 8.56386 6.95561 8.6354C6.91736 8.17039 6.78984 7.69347 6.61133 7.2523C8.03945 7.12115 9.36557 6.40575 10.1944 5.29689C11.1125 4.09264 11.3547 2.5307 10.8575 1.12376C10.8192 1.00452 10.7044 0.932983 10.5769 0.932983C8.99579 0.968753 7.50391 1.70799 6.58583 2.91224C5.93552 3.78264 5.61674 4.83189 5.6805 5.86921C5.39997 5.6069 5.09395 5.42805 4.78792 5.35651C4.62215 5.30882 4.46914 5.4042 4.41814 5.54728C4.37988 5.69036 4.46914 5.84536 4.63491 5.89305C5.51473 6.1196 6.22879 7.47885 6.35631 8.62348C6.2543 8.58771 6.12679 8.52809 5.96102 8.44463C5.85901 8.39694 5.74425 8.33732 5.62949 8.2777C4.94093 7.92001 4.09936 7.49077 3.19403 7.44308C2.51822 7.40731 1.89342 7.59808 1.34512 8.01539C0.592802 8.56386 0.108259 9.63695 0.0190014 10.9366C-0.134012 12.9635 0.643806 15.0382 2.11018 16.4928C2.22494 16.6001 2.41621 16.6121 2.53097 16.5047C2.64573 16.3974 2.65848 16.2186 2.54372 16.1113C1.1921 14.764 0.46529 12.8443 0.605553 10.9843C0.694811 9.83965 1.10285 8.89771 1.7149 8.44463C2.16119 8.1227 2.63298 7.9677 3.16853 8.00347C3.93359 8.03924 4.68591 8.42078 5.34897 8.76656C5.47648 8.82617 5.59124 8.88579 5.706 8.94541C5.89727 9.04079 6.05028 9.11233 6.19054 9.16002C6.36906 9.21964 6.53482 9.25541 6.67508 9.25541C7.04487 9.25541 7.4784 9.04079 8.01395 8.75463C9.07229 8.21809 10.3984 7.52654 11.6353 8.44463C12.4896 9.07656 12.9104 10.5908 12.7064 12.2362C12.5661 13.3093 12.1708 14.3466 11.5588 15.229C10.8447 16.2544 9.86286 17.0294 8.63876 17.5659C8.37098 17.6851 8.07771 17.6255 7.72068 17.399C7.4274 17.2082 7.09587 17.1128 6.75159 17.089C6.73884 17.089 6.72609 17.089 6.71334 17.089C6.3308 17.0771 5.94827 17.1844 5.62949 17.399C5.27246 17.6255 4.97919 17.6732 4.71141 17.5659C4.23962 17.3632 3.79333 17.1128 3.3853 16.8267C3.25779 16.7313 3.06652 16.7551 2.96451 16.8863C2.8625 17.0055 2.888 17.1844 3.02826 17.2798C3.4618 17.5898 3.94635 17.864 4.45639 18.0786C4.63491 18.1621 4.81342 18.1859 4.99194 18.1859C5.37447 18.1859 5.71875 18.0309 5.96102 17.864C6.17779 17.7209 6.43281 17.6494 6.70059 17.6613C6.71334 17.6613 6.72609 17.6613 6.73884 17.6613C6.96836 17.6732 7.19788 17.7448 7.38915 17.864C7.75893 18.1025 8.30723 18.329 8.89378 18.0786C9.36557 17.8759 9.81186 17.6255 10.2199 17.3513C11.2272 17.9117 12.3876 18.2098 13.5862 18.2098C17.131 18.2098 20 15.6105 20 12.4151C20 11.8547 19.796 11.1631 19.4007 10.3643ZM6.81535 6.66807L8.53675 4.39073L9.97762 4.56957C9.90112 4.70073 9.81186 4.84381 9.70985 4.97496C9.03404 5.88113 7.9757 6.48922 6.81535 6.66807ZM9.03404 2.76916L8.63876 1.95838C9.04679 1.75569 9.49308 1.61261 9.96487 1.54107L9.03404 2.76916ZM10.4494 1.863C10.5897 2.59031 10.5132 3.34148 10.2454 4.03303L8.93203 3.87803L10.4494 1.863ZM8.12871 2.25646L8.65151 3.30571L8.16696 3.92572L7.77168 4.43842L7.17238 3.10301C7.44015 2.78109 7.75893 2.48301 8.12871 2.25646ZM6.77709 3.67533L7.36364 4.97496L6.3308 6.34614C6.16504 5.43997 6.31805 4.48611 6.77709 3.67533Z" fill="#961914"/>
</svg>
