<svg width="20" height="14" viewBox="0 0 20 14" fill="none" xmlns="http://www.w3.org/2000/svg">
<g clip-path="url(#clip0)">
<path d="M18.2951 2.84631C17.378 2.21895 16.0964 1.71302 14.4738 1.32852C11.3463 0.58986 7.81893 0.508911 6.44327 0.508911C2.89242 0.508911 0 2.99809 0 6.0539V8.40142C0 11.4572 2.89242 13.9464 6.44327 13.9464C8.0776 13.9464 9.31217 13.5012 10.6173 13.0357C11.9694 12.55 13.3568 12.0542 15.3204 12.0542C17.9071 12.0542 20 10.243 20 8.02703V5.67952C20 4.57659 19.4239 3.62544 18.2951 2.84631ZM17.9659 8.59367C18.1188 8.72521 18.3657 8.73533 18.5185 8.60379C18.7889 8.3913 19.0123 8.14845 19.2122 7.89549V8.02703C19.2122 9.87873 17.4603 11.3864 15.3086 11.3864C13.1922 11.3864 11.7225 11.9126 10.3116 12.4185C9.08877 12.8637 7.92475 13.2786 6.44327 13.2786C3.44503 13.2786 0.975897 11.265 0.787772 8.7151C1.88125 10.4353 4.00941 11.5989 6.44327 11.5989C8.0776 11.5989 9.31217 11.1537 10.6173 10.6882C11.9694 10.2025 13.3568 9.70672 15.3204 9.70672C15.4615 9.70672 15.6143 9.6966 15.7554 9.68648C15.9671 9.66624 16.1317 9.50435 16.1082 9.32221C16.0847 9.14008 15.8965 8.99842 15.6849 9.01865C15.5673 9.02877 15.438 9.02877 15.3204 9.02877C13.204 9.02877 11.7343 9.55494 10.3233 10.0609C9.08877 10.5162 7.92475 10.9311 6.44327 10.9311C3.3157 10.9311 0.776014 8.74545 0.776014 6.0539C0.776014 3.36236 3.3157 1.17674 6.44327 1.17674C7.78366 1.17674 11.2287 1.25769 14.2622 1.97611C17.5426 2.75524 19.2122 3.99983 19.2122 5.67952C19.2122 6.60031 18.7654 7.49075 17.9777 8.1181C17.8248 8.24964 17.8248 8.46213 17.9659 8.59367Z" fill="#961914"/>
<path d="M17.6484 8.80615C17.5544 8.63413 17.3192 8.5633 17.1311 8.64425H17.1193C16.9312 8.7252 16.8489 8.92757 16.943 9.09959C17.0135 9.22101 17.1546 9.28172 17.2957 9.28172C17.3545 9.28172 17.4133 9.27161 17.4721 9.25137C17.6602 9.17042 17.7425 8.97816 17.6484 8.80615Z" fill="#961914"/>
<path d="M9.26512 1.94574H9.2416C9.02996 1.93562 8.84184 2.06716 8.81832 2.25941C8.80656 2.44155 8.95942 2.60344 9.17106 2.62368H9.19457C9.20633 2.62368 9.21809 2.62368 9.22985 2.62368C9.42973 2.62368 9.6061 2.49214 9.61785 2.31001C9.64137 2.12787 9.47676 1.96597 9.26512 1.94574Z" fill="#961914"/>
<path d="M18.1893 4.77889C17.8013 4.11106 16.943 3.54442 15.6261 3.07896C14.5679 2.70458 13.4039 2.46173 12.6161 2.33019C12.1458 2.24924 11.652 2.17841 11.1464 2.1177C10.9347 2.09746 10.7349 2.229 10.7113 2.41114C10.6761 2.59327 10.8289 2.76529 11.0406 2.78553C11.5344 2.84624 12.0047 2.91707 12.4633 2.9879C15.144 3.44323 16.9782 4.20213 17.4956 5.07233C17.6014 5.25446 17.6602 5.45684 17.6602 5.67944C17.6602 6.79249 16.6138 7.69305 15.3204 7.69305C14.0153 7.69305 12.7572 7.87518 11.4521 8.24957C10.8877 8.41147 10.3469 8.60372 9.81775 8.79597C9.46502 8.9174 9.11228 9.04894 8.74779 9.16024C7.8542 9.4638 7.16049 9.58522 6.44326 9.58522C4.18577 9.58522 2.3398 8.00672 2.3398 6.05383C2.3398 4.11106 4.17401 2.52244 6.44326 2.52244C6.89006 2.52244 7.33686 2.53256 7.77189 2.54268C7.84244 2.54268 7.92475 2.54268 7.99529 2.5528C8.21869 2.56292 8.39506 2.42126 8.40681 2.229C8.41857 2.04687 8.25396 1.88497 8.03057 1.87485C7.94826 1.87485 7.87771 1.86473 7.79541 1.86473C7.34861 1.86473 6.89006 1.85461 6.44326 1.85461C3.75073 1.85461 1.56378 3.73667 1.56378 6.05383C1.56378 8.37099 3.75073 10.2531 6.44326 10.2531C7.26631 10.2531 8.03057 10.1114 9.02998 9.7876C9.39447 9.67629 9.75896 9.54475 10.1117 9.41321C10.629 9.23107 11.1581 9.03882 11.6872 8.88704C12.91 8.53289 14.0858 8.36087 15.3086 8.36087C17.0253 8.36087 18.4245 7.15676 18.4245 5.67944C18.4362 5.34553 18.3539 5.05209 18.1893 4.77889Z" fill="#961914"/>
<path d="M6.81955 3.19031C5.72607 3.19031 4.84424 3.88849 4.84424 4.73845C4.84424 5.58841 5.72607 6.27648 6.81955 6.27648C7.91302 6.27648 8.79486 5.5783 8.79486 4.72833C8.79486 3.87837 7.91302 3.19031 6.81955 3.19031ZM6.81955 5.60865C6.16111 5.60865 5.62025 5.21403 5.62025 4.73845C5.62025 4.25276 6.16111 3.86825 6.81955 3.86825C7.47798 3.86825 8.01884 4.25276 8.01884 4.73845C8.01884 5.22415 7.47798 5.60865 6.81955 5.60865Z" fill="#961914"/>
</g>
<defs>
<clipPath id="clip0">
<rect width="20" height="13.4375" fill="white" transform="translate(0 0.508911)"/>
</clipPath>
</defs>
</svg>
