<svg width="20" height="20" viewBox="0 0 20 20" fill="none" xmlns="http://www.w3.org/2000/svg">
<g clip-path="url(#clip0)">
<path d="M20 11.0369C20 9.69395 19.318 8.39613 18.1775 7.59487C17.9424 7.42559 17.6602 7.33531 17.3663 7.33531C17.0018 7.33531 16.6608 7.47073 16.4139 7.70772C16.3668 7.67387 16.3198 7.62873 16.2728 7.59487C16.0964 7.45945 15.8848 7.38045 15.6614 7.35788L15.8025 5.85692C15.8025 5.82307 15.8025 5.78921 15.8025 5.74407C15.8025 5.07823 15.2381 4.54782 14.5561 4.54782H14.4738C13.7801 4.54782 13.2275 5.08952 13.2275 5.74407C13.2275 5.77792 13.2275 5.81178 13.2275 5.85692L13.3686 7.36916C13.1687 7.40302 12.9688 7.48202 12.8042 7.60616C12.7454 7.6513 12.6984 7.69644 12.6396 7.74158C12.6161 7.70772 12.5808 7.68515 12.5456 7.66258C12.5691 7.54973 12.5808 7.43688 12.5808 7.33531C12.5808 6.94032 12.4515 6.5679 12.2163 6.25191C12.4515 5.93592 12.5808 5.5635 12.5808 5.16851C12.5808 4.10769 11.652 3.25 10.535 3.31771C10.3233 2.75344 9.84127 2.31331 9.25338 2.15532C8.85362 1.68133 8.26573 1.42177 7.63081 1.45562C7.36038 0.722075 6.64315 0.214233 5.80835 0.214233C5.10288 0.214233 4.46796 0.575365 4.12698 1.13963C3.28042 1.17349 2.53968 1.74904 2.32804 2.53902C1.32863 2.90015 0.646678 3.82555 0.646678 4.85252C0.646678 5.67636 1.06996 6.44376 1.77543 6.89518C1.66961 7.13217 1.61082 7.39173 1.61082 7.64001C1.61082 8.193 1.86949 8.71212 2.31628 9.06197C2.28101 9.20868 2.2575 9.35539 2.2575 9.5021C2.2575 10.4501 2.99824 11.24 3.96238 11.3416L4.6796 13.2601C4.31511 13.5197 3.99765 13.847 3.76249 14.2081L2.06937 13.847C2.01058 13.8357 1.94004 13.8244 1.86949 13.8244C1.37566 13.8244 0.964139 14.2081 0.964139 14.6934V14.8175C0.964139 14.9078 0.975897 14.9868 1.01117 15.0658H0.964139C0.435038 15.0771 0 15.4946 0 16.0025C0 16.5103 0.435038 16.9279 0.964139 16.9279H1.01117C0.987654 17.0069 0.964139 17.0859 0.964139 17.1762V17.3003C0.964139 17.7743 1.3639 18.1693 1.86949 18.1693C1.94004 18.1693 1.99882 18.158 2.06937 18.1467L3.76249 17.7856C4.38566 18.7561 5.50265 19.4107 6.77249 19.4107H6.84303C7.0194 19.4107 7.20753 19.3994 7.38389 19.3655L18.448 17.7291C19.3416 17.5937 20 16.8715 20 15.9912C20 15.2915 19.5767 14.6934 18.9536 14.4112C19.6238 13.6438 20 12.6733 20 11.6689V11.0369ZM15.8848 8.09143C16.8489 8.80241 17.425 9.91966 17.425 11.1046V12.2444C17.425 12.8764 17.2604 13.4971 16.9547 14.0501L14.368 13.6664C14.2622 13.215 14.2034 12.7636 14.2034 12.3009V11.0369C14.2034 10.7209 14.2387 10.4162 14.2857 10.1002C14.368 10.1115 14.4386 10.1115 14.5209 10.1115C15.438 10.1115 16.1317 9.71652 16.1317 9.18611C16.1317 8.89269 15.92 8.63313 15.5556 8.46384L15.6026 7.96729C15.6966 7.98986 15.7907 8.02371 15.8848 8.09143ZM14.4738 5.16851H14.5561C14.8854 5.16851 15.1558 5.42808 15.1558 5.74407C15.1558 5.76664 15.1558 5.77792 15.1558 5.8005L14.8618 8.89269L15.1088 8.97169C15.3909 9.06197 15.485 9.17482 15.485 9.19739C15.485 9.27639 15.144 9.5021 14.5209 9.5021C13.8977 9.5021 13.5567 9.26511 13.5567 9.19739C13.5567 9.17482 13.6508 9.06197 13.933 8.97169L14.1799 8.89269L13.8742 5.8005C13.8742 5.77792 13.8742 5.76664 13.8742 5.74407C13.8742 5.42808 14.1446 5.16851 14.4738 5.16851ZM13.4274 7.97857L13.4744 8.46384C13.1099 8.63313 12.8983 8.89269 12.8983 9.18611C12.8983 9.52467 13.1922 9.8068 13.639 9.97608C13.5802 10.3259 13.545 10.6871 13.545 11.0369V12.2896C13.545 12.7184 13.592 13.136 13.6743 13.5535L11.7695 13.2714C11.6637 12.9329 11.6049 12.583 11.6049 12.2219V11.1046C11.6049 9.93094 12.1928 8.80241 13.1805 8.09143C13.2628 8.035 13.3451 8.00114 13.4274 7.97857ZM9.94709 13.0119C9.77072 12.583 9.67666 12.1429 9.67666 11.6802V11.0369C9.67666 9.8858 10.2646 8.77984 11.2404 8.09143C11.358 8.00114 11.5109 7.956 11.6637 7.956C11.8636 7.956 12.04 8.035 12.1693 8.15914C11.4051 8.9604 10.97 10.0099 10.97 11.1046V12.2444C10.97 12.5604 11.0053 12.8764 11.0758 13.1924L9.94709 13.0119ZM9.97061 3.7127L10.0294 4.02869L10.3586 3.96098C10.4644 3.93841 10.5585 3.92712 10.6408 3.92712C11.358 3.92712 11.9342 4.48011 11.9342 5.16851C11.9342 5.49579 11.8048 5.8005 11.5697 6.03749L11.3463 6.25191L11.5697 6.46633C11.8048 6.70333 11.9342 7.00803 11.9342 7.33531C11.9342 7.34659 11.9342 7.35788 11.9342 7.35788C11.8401 7.34659 11.7578 7.33531 11.6637 7.33531C11.3698 7.33531 11.0876 7.42559 10.8524 7.59487C10.2646 8.00114 9.806 8.55413 9.48854 9.16354C9.37096 8.80241 9.24162 8.45256 9.11229 8.114C9.40623 6.60176 10.5115 5.73278 10.5232 5.7215L10.3233 5.47322L10.1235 5.23623C10.0764 5.27008 9.20635 5.95849 8.71252 7.1886C8.04233 5.71021 7.40741 4.75096 7.37213 4.69453L6.81952 5.0218C6.83128 5.03309 7.3251 5.77792 7.88948 6.96289C6.9371 6.61304 5.83186 6.71461 5.77307 6.71461L5.83186 7.33531C6.31393 7.29017 7.68959 7.31274 8.33627 7.94472C8.55967 8.47513 8.78307 9.06197 8.98295 9.69395C8.00705 9.19739 6.83128 9.19739 6.77249 9.19739V9.8068C6.78425 9.8068 8.21869 9.81809 9.07701 10.4614C9.0535 10.6532 9.02998 10.8451 9.02998 11.0369V11.6915C9.02998 12.109 9.10053 12.5153 9.21811 12.9103L7.38389 12.6394C7.28983 12.6281 7.19577 12.6169 7.10171 12.6056C6.38448 12.6056 5.80835 12.0413 5.80835 11.3529C5.80835 11.2062 5.84362 11.0595 5.90241 10.9128L5.99647 10.6758L5.76132 10.5516C5.38507 10.3259 5.16167 9.93094 5.16167 9.5021C5.16167 9.25382 5.23222 9.01683 5.37331 8.81369L5.57319 8.52027L5.25573 8.37356C4.5973 8.05757 4.19753 7.42559 4.19753 6.71461C4.19753 5.89078 4.77366 5.15723 5.59671 4.93152L5.79659 4.87509L5.83186 4.67196C5.91417 4.07383 6.46678 3.62242 7.10171 3.62242C7.11346 3.62242 7.12522 3.62242 7.13698 3.62242C7.16049 3.62242 7.18401 3.6337 7.20753 3.6337L7.44268 3.65627L7.52499 3.44185C7.72487 2.97915 8.19518 2.68573 8.71252 2.68573C9.33568 2.68573 9.86479 3.12586 9.97061 3.7127ZM4.42093 10.7435H4.19753C3.48031 10.7435 2.90417 10.1905 2.90417 9.5021C2.90417 9.35539 2.93945 9.20868 2.99824 9.06197L3.0923 8.82498L2.85714 8.68955C2.48089 8.46384 2.2575 8.06886 2.2575 7.64001C2.2575 7.39173 2.32804 7.15474 2.46914 6.9516L2.66902 6.65818L2.35156 6.51147C1.69312 6.19548 1.29336 5.5635 1.29336 4.85252C1.29336 4.02869 1.86949 3.29514 2.69253 3.06943L2.89242 3.01301L2.92769 2.80987C3.02175 2.21175 3.56261 1.74904 4.19753 1.74904C4.20929 1.74904 4.22105 1.74904 4.2328 1.74904C4.25632 1.74904 4.27984 1.74904 4.30335 1.76033L4.53851 1.7829L4.63257 1.57976C4.82069 1.12835 5.29101 0.834929 5.80835 0.834929C6.43151 0.834929 6.96061 1.26377 7.07819 1.8619L7.13698 2.17789L7.4662 2.11018C7.57202 2.08761 7.65432 2.07632 7.74838 2.07632C7.90123 2.07632 8.04233 2.11018 8.17166 2.15532C7.68959 2.27946 7.27807 2.58416 7.03116 3.00172C6.17284 3.02429 5.44386 3.61113 5.23222 4.40111C4.2328 4.75096 3.55085 5.67636 3.55085 6.71461C3.55085 7.53844 3.97413 8.30585 4.6796 8.75726C4.57378 8.99426 4.51499 9.24254 4.51499 9.5021C4.51499 10.0551 4.77366 10.5742 5.22046 10.9241C5.18519 11.0708 5.16167 11.2175 5.16167 11.3642C5.16167 11.9059 5.40858 12.4024 5.79659 12.741C5.60847 12.7974 5.42034 12.8651 5.24397 12.9441L4.42093 10.7435ZM1.61082 14.8288V14.7047C1.61082 14.5467 1.76367 14.4338 1.92828 14.4677L3.46855 14.7949C3.42152 14.8852 3.38624 14.9755 3.36273 15.0771H1.86949C1.7284 15.0771 1.61082 14.9642 1.61082 14.8288ZM0.646678 16.0025C0.646678 15.8332 0.787772 15.6978 0.964139 15.6978H1.86949H3.24515C3.23339 15.7993 3.23339 15.9009 3.23339 16.0025C3.23339 16.104 3.24515 16.2056 3.24515 16.3072H1.86949H0.964139C0.787772 16.3072 0.646678 16.1718 0.646678 16.0025ZM1.92828 17.5486C1.77543 17.5824 1.61082 17.4583 1.61082 17.3116V17.1874C1.61082 17.052 1.7284 16.9392 1.86949 16.9392H3.36273C3.38624 17.0407 3.42152 17.131 3.45679 17.2213L1.92828 17.5486ZM19.3533 16.0025C19.3533 16.5667 18.93 17.0407 18.3539 17.1197L7.28983 18.7561C7.14874 18.7787 6.99589 18.79 6.84303 18.79H6.77249C5.17343 18.79 3.86831 17.5373 3.86831 16.0025C3.86831 14.4677 5.17343 13.215 6.77249 13.215H6.84303C6.98413 13.215 7.13698 13.2263 7.28983 13.2488L18.3539 14.8852C18.93 14.9642 19.3533 15.4382 19.3533 16.0025ZM19.3533 11.6802C19.3533 12.6281 18.9536 13.5536 18.2481 14.242L17.6014 14.1517C17.8954 13.5536 18.0482 12.9103 18.0482 12.2444V11.1046C18.0482 10.0099 17.6132 8.94912 16.8607 8.14785C16.99 8.035 17.1664 7.956 17.3545 7.956C17.5073 7.956 17.6602 8.00114 17.7778 8.09143C18.7537 8.77984 19.3416 9.8858 19.3416 11.0369L19.3533 11.6802Z" fill="#961914"/>
<path d="M6.45502 14.4564H7.1017V17.5486H6.45502V14.4564Z" fill="#961914"/>
<path d="M9.02997 14.4564H9.67665V17.5486H9.02997V14.4564Z" fill="#961914"/>
<path d="M11.6167 14.4564H12.2634V17.5486H11.6167V14.4564Z" fill="#961914"/>
<path d="M14.1917 15.077H14.8383V16.9391H14.1917V15.077Z" fill="#961914"/>
<path d="M16.7666 15.3817H17.4133V16.6231H16.7666V15.3817Z" fill="#961914"/>
</g>
<defs>
<clipPath id="clip0">
<rect width="20" height="19.1964" fill="white" transform="translate(0 0.214233)"/>
</clipPath>
</defs>
</svg>
