<svg width="20" height="22" viewBox="0 0 20 22" fill="none" xmlns="http://www.w3.org/2000/svg">
<g clip-path="url(#clip0)">
<path d="M7.24214 9.39883C6.93489 8.36669 5.99854 7.65894 4.91587 7.65894C3.83321 7.65894 2.89685 8.36669 2.58961 9.39883C1.81419 9.88541 1.17045 10.6374 0.716898 11.5663C0.24872 12.5395 0 13.6748 0 14.8692C0 16.4911 0.453548 18.0098 1.28749 19.1157C2.19459 20.3395 3.48208 21.003 4.91587 21.003C6.34967 21.003 7.63716 20.3395 8.54426 19.1157C8.64667 18.983 8.61741 18.8061 8.48573 18.7029C8.35406 18.5996 8.17849 18.6291 8.07608 18.7618C7.28603 19.8235 6.15947 20.4133 4.91587 20.4133C3.67227 20.4133 2.54572 19.8235 1.75567 18.7618C0.994879 17.7444 0.585223 16.3584 0.585223 14.8692C0.585223 13.7633 0.804682 12.7017 1.2436 11.8317C1.66789 10.9618 2.26774 10.2835 2.99927 9.85592C3.07242 9.81169 3.11631 9.75271 3.13094 9.66424C3.33577 8.83853 4.0673 8.24873 4.91587 8.24873C5.76445 8.24873 6.51061 8.82378 6.7008 9.66424C6.71543 9.73796 6.77396 9.81169 6.83248 9.85592C7.56401 10.2835 8.16386 10.9765 8.58815 11.8317C9.01243 12.7164 9.24652 13.7633 9.24652 14.8692C9.24652 15.8571 9.07096 16.8008 8.71982 17.6265C8.6613 17.7739 8.71982 17.9509 8.88076 18.0098C9.02707 18.0688 9.20263 18.0098 9.26115 17.8476C9.64155 16.9482 9.83175 15.9308 9.83175 14.8692C9.83175 13.6748 9.58303 12.5247 9.11485 11.5663C8.67593 10.6374 8.01756 9.88541 7.24214 9.39883Z" fill="#961914"/>
<path d="M2.7213 13.0262C2.56036 12.982 2.39943 13.0704 2.35554 13.2326C2.20923 13.7339 2.13608 14.2942 2.13608 14.8693C2.13608 17.1842 3.30652 18.8504 4.91589 18.8504C6.52525 18.8504 7.6957 17.1695 7.6957 14.8693C7.6957 12.5691 6.52525 10.8882 4.91589 10.8882C4.18436 10.8882 3.51135 11.2421 3.01391 11.8908C2.9115 12.0235 2.94076 12.2005 3.0578 12.3037C3.18948 12.4069 3.36505 12.3774 3.46746 12.2447C3.86249 11.7434 4.35993 11.478 4.91589 11.478C6.18875 11.478 7.11047 12.9082 7.11047 14.8693C7.11047 16.8304 6.18875 18.2606 4.91589 18.2606C3.64303 18.2606 2.7213 16.8304 2.7213 14.8693C2.7213 14.3385 2.79445 13.8372 2.92613 13.3948C2.97002 13.2326 2.86761 13.0704 2.7213 13.0262Z" fill="#961914"/>
<path d="M18.7125 2.74892C17.8054 1.52509 16.5179 0.861572 15.0841 0.861572C13.6503 0.861572 12.3482 1.52509 11.4557 2.74892C10.8705 3.5304 10.4609 4.53305 10.2853 5.63891C10.2414 5.78636 10.3584 5.94856 10.5194 5.97805C10.6803 5.99279 10.8266 5.88958 10.8559 5.72738C11.0168 4.72473 11.3826 3.81055 11.9239 3.10279C12.714 2.04116 13.8259 1.45137 15.0841 1.45137C16.3277 1.45137 17.4543 2.04116 18.2443 3.10279C19.0051 4.12019 19.4148 5.50621 19.4148 6.99544C19.4148 8.10131 19.1953 9.16294 18.7564 10.0329C18.3321 10.9028 17.7323 11.5811 17.0007 12.0087C16.9276 12.0529 16.8837 12.1119 16.8691 12.2004C16.6642 13.0261 15.9327 13.6159 15.0841 13.6159C14.2355 13.6159 13.4894 13.0408 13.2992 12.2004C13.2699 12.1267 13.226 12.0677 13.1529 12.0234C12.4214 11.5958 11.8215 10.9028 11.3972 10.0476C10.9729 9.16294 10.7535 8.10131 10.7535 6.99544C10.7535 6.83325 10.6218 6.70054 10.4609 6.70054C10.2999 6.70054 10.1682 6.83325 10.1682 6.99544C10.1682 8.18978 10.417 9.33988 10.8851 10.2983C11.3387 11.2272 11.9824 11.9792 12.7579 12.4658C13.0651 13.4979 14.0015 14.2057 15.0841 14.2057C16.1668 14.2057 17.1031 13.4979 17.4104 12.4658C18.1858 11.9792 18.8442 11.2272 19.2831 10.2983C19.7513 9.33988 20 8.18978 20 6.99544C20 5.3735 19.5318 3.86953 18.7125 2.74892Z" fill="#961914"/>
<path d="M17.3665 8.5731C17.5274 8.60259 17.6884 8.51412 17.7176 8.35193C17.8201 7.92433 17.864 7.46724 17.864 6.9954C17.864 4.68045 16.6935 3.01428 15.0841 3.01428C13.4748 3.01428 12.2897 4.6952 12.2897 6.9954C12.2897 9.2956 13.4602 10.9765 15.0695 10.9765C15.9327 10.9765 16.6935 10.4899 17.2202 9.61999C17.308 9.47254 17.2495 9.2956 17.1178 9.22188C16.9715 9.13341 16.7959 9.19239 16.7228 9.32509C16.3131 10.0181 15.7279 10.4015 15.0841 10.4015C13.8113 10.4015 12.8896 8.97122 12.8896 7.01015C12.8896 5.04908 13.8113 3.61882 15.0841 3.61882C16.357 3.61882 17.2787 5.04908 17.2787 7.01015C17.2787 7.43775 17.2348 7.8506 17.1471 8.23397C17.1032 8.38142 17.2056 8.54361 17.3665 8.5731Z" fill="#961914"/>
<path d="M4.28679 16.1961C4.28679 16.0339 4.15512 15.9012 3.99418 15.9012C3.83324 15.9012 3.70157 16.0339 3.70157 16.1961C3.70157 16.3583 3.83324 16.491 3.99418 16.491C4.15512 16.491 4.28679 16.3583 4.28679 16.1961Z" fill="#961914"/>
<path d="M5.16459 17.3168C5.32619 17.3168 5.4572 17.1848 5.4572 17.0219C5.4572 16.8591 5.32619 16.7271 5.16459 16.7271C5.00299 16.7271 4.87198 16.8591 4.87198 17.0219C4.87198 17.1848 5.00299 17.3168 5.16459 17.3168Z" fill="#961914"/>
<path d="M5.67665 13.3505C5.83825 13.3505 5.96926 13.2185 5.96926 13.0556C5.96926 12.8928 5.83825 12.7607 5.67665 12.7607C5.51504 12.7607 5.38403 12.8928 5.38403 13.0556C5.38403 13.2185 5.51504 13.3505 5.67665 13.3505Z" fill="#961914"/>
<path d="M13.8551 5.6832C13.8551 5.8454 13.9868 5.9781 14.1477 5.9781C14.3087 5.9781 14.4404 5.8454 14.4404 5.6832C14.4404 5.52101 14.3087 5.38831 14.1477 5.38831C13.9868 5.38831 13.8551 5.52101 13.8551 5.6832Z" fill="#961914"/>
<path d="M15.3182 5.1523C15.4799 5.1523 15.6109 5.02027 15.6109 4.8574C15.6109 4.69453 15.4799 4.5625 15.3182 4.5625C15.1566 4.5625 15.0256 4.69453 15.0256 4.8574C15.0256 5.02027 15.1566 5.1523 15.3182 5.1523Z" fill="#961914"/>
<path d="M15.8449 9.11873C16.0065 9.11873 16.1375 8.9867 16.1375 8.82383C16.1375 8.66096 16.0065 8.52893 15.8449 8.52893C15.6833 8.52893 15.5523 8.66096 15.5523 8.82383C15.5523 8.9867 15.6833 9.11873 15.8449 9.11873Z" fill="#961914"/>
</g>
<defs>
<clipPath id="clip0">
<rect width="20" height="20.1562" fill="white" transform="translate(0 0.861572)"/>
</clipPath>
</defs>
</svg>
